<svg xmlns="http://www.w3.org/2000/svg" viewBox="0 0 24 24" width="20" height="20">
  <path fill="#EA4335" d="M12 10.2v3.6h5.1c-.2 1.2-.9 2.2-1.9 2.9l3.1 2.4c1.8-1.7 2.8-4.1 2.8-7 0-.7-.1-1.3-.2-1.9H12z"/>
  <path fill="#34A853" d="M6.6 14.3l-.8.6-2.5 1.9C4.7 19.3 8.1 21.4 12 21.4c2.3 0 4.3-.8 5.7-2.1l-3.1-2.4c-.8.6-1.9.9-3.1.9-2.4 0-4.4-1.6-5.1-3.8z"/>
  <path fill="#4A90E2" d="M3.3 7.2C2.5 8.7 2 10.3 2 12s.5 3.3 1.3 4.8l3.3-2.5C6.2 13.5 6 12.8 6 12s.2-1.5.5-2.3L3.3 7.2z"/>
  <path fill="#FBBC05" d="M12 5.8c1.3 0 2.4.4 3.3 1.3l2.5-2.5C16.3 3.1 14.3 2.2 12 2.2 8.1 2.2 4.7 4.3 3.3 7.2l3.2 2.5C7.6 7.4 9.6 5.8 12 5.8z"/>
</svg>
